<?xml version="1.0" encoding="utf-8"?>
<svg xmlns="http://www.w3.org/2000/svg" xmlns:xlink="http://www.w3.org/1999/xlink" width="600" height="400" viewBox="0 0 2400 1600">
<defs>
  <clipPath id="clip4600">
    <rect x="0" y="0" width="2400" height="1600"/>
  </clipPath>
</defs>
<polygon clip-path="url(#clip4600)" points="
0,1600 2400,1600 2400,0 0,0 
  " fill="#ffffff" fill-rule="evenodd" fill-opacity="1"/>
<defs>
  <clipPath id="clip4601">
    <rect x="480" y="0" width="1681" height="1600"/>
  </clipPath>
</defs>
<polygon clip-path="url(#clip4600)" points="
169.503,1478.97 2352.76,1478.97 2352.76,47.2441 169.503,47.2441 
  " fill="#ffffff" fill-rule="evenodd" fill-opacity="1"/>
<defs>
  <clipPath id="clip4602">
    <rect x="169" y="47" width="2184" height="1433"/>
  </clipPath>
</defs>
<polyline clip-path="url(#clip4602)" style="stroke:#000000; stroke-width:2; stroke-opacity:0.1; fill:none" points="
  460.146,1478.97 460.146,47.2441 
  "/>
<polyline clip-path="url(#clip4602)" style="stroke:#000000; stroke-width:2; stroke-opacity:0.1; fill:none" points="
  917.851,1478.97 917.851,47.2441 
  "/>
<polyline clip-path="url(#clip4602)" style="stroke:#000000; stroke-width:2; stroke-opacity:0.1; fill:none" points="
  1375.56,1478.97 1375.56,47.2441 
  "/>
<polyline clip-path="url(#clip4602)" style="stroke:#000000; stroke-width:2; stroke-opacity:0.1; fill:none" points="
  1833.26,1478.97 1833.26,47.2441 
  "/>
<polyline clip-path="url(#clip4602)" style="stroke:#000000; stroke-width:2; stroke-opacity:0.1; fill:none" points="
  2290.97,1478.97 2290.97,47.2441 
  "/>
<polyline clip-path="url(#clip4602)" style="stroke:#000000; stroke-width:2; stroke-opacity:0.1; fill:none" points="
  169.503,1446.4 2352.76,1446.4 
  "/>
<polyline clip-path="url(#clip4602)" style="stroke:#000000; stroke-width:2; stroke-opacity:0.1; fill:none" points="
  169.503,1159.77 2352.76,1159.77 
  "/>
<polyline clip-path="url(#clip4602)" style="stroke:#000000; stroke-width:2; stroke-opacity:0.1; fill:none" points="
  169.503,873.151 2352.76,873.151 
  "/>
<polyline clip-path="url(#clip4602)" style="stroke:#000000; stroke-width:2; stroke-opacity:0.1; fill:none" points="
  169.503,586.528 2352.76,586.528 
  "/>
<polyline clip-path="url(#clip4602)" style="stroke:#000000; stroke-width:2; stroke-opacity:0.1; fill:none" points="
  169.503,299.905 2352.76,299.905 
  "/>
<polyline clip-path="url(#clip4600)" style="stroke:#000000; stroke-width:4; stroke-opacity:1; fill:none" points="
  169.503,1478.97 2352.76,1478.97 
  "/>
<polyline clip-path="url(#clip4600)" style="stroke:#000000; stroke-width:4; stroke-opacity:1; fill:none" points="
  169.503,1478.97 169.503,47.2441 
  "/>
<polyline clip-path="url(#clip4600)" style="stroke:#000000; stroke-width:4; stroke-opacity:1; fill:none" points="
  460.146,1478.97 460.146,1457.5 
  "/>
<polyline clip-path="url(#clip4600)" style="stroke:#000000; stroke-width:4; stroke-opacity:1; fill:none" points="
  917.851,1478.97 917.851,1457.5 
  "/>
<polyline clip-path="url(#clip4600)" style="stroke:#000000; stroke-width:4; stroke-opacity:1; fill:none" points="
  1375.56,1478.97 1375.56,1457.5 
  "/>
<polyline clip-path="url(#clip4600)" style="stroke:#000000; stroke-width:4; stroke-opacity:1; fill:none" points="
  1833.26,1478.97 1833.26,1457.5 
  "/>
<polyline clip-path="url(#clip4600)" style="stroke:#000000; stroke-width:4; stroke-opacity:1; fill:none" points="
  2290.97,1478.97 2290.97,1457.5 
  "/>
<polyline clip-path="url(#clip4600)" style="stroke:#000000; stroke-width:4; stroke-opacity:1; fill:none" points="
  169.503,1446.4 202.252,1446.4 
  "/>
<polyline clip-path="url(#clip4600)" style="stroke:#000000; stroke-width:4; stroke-opacity:1; fill:none" points="
  169.503,1159.77 202.252,1159.77 
  "/>
<polyline clip-path="url(#clip4600)" style="stroke:#000000; stroke-width:4; stroke-opacity:1; fill:none" points="
  169.503,873.151 202.252,873.151 
  "/>
<polyline clip-path="url(#clip4600)" style="stroke:#000000; stroke-width:4; stroke-opacity:1; fill:none" points="
  169.503,586.528 202.252,586.528 
  "/>
<polyline clip-path="url(#clip4600)" style="stroke:#000000; stroke-width:4; stroke-opacity:1; fill:none" points="
  169.503,299.905 202.252,299.905 
  "/>
<g clip-path="url(#clip4600)">
<text style="fill:#000000; fill-opacity:1; font-family:Arial,Helvetica Neue,Helvetica,sans-serif; font-size:48px; text-anchor:middle;" transform="rotate(0, 460.146, 1532.97)" x="460.146" y="1532.97">2</text>
</g>
<g clip-path="url(#clip4600)">
<text style="fill:#000000; fill-opacity:1; font-family:Arial,Helvetica Neue,Helvetica,sans-serif; font-size:48px; text-anchor:middle;" transform="rotate(0, 917.851, 1532.97)" x="917.851" y="1532.97">4</text>
</g>
<g clip-path="url(#clip4600)">
<text style="fill:#000000; fill-opacity:1; font-family:Arial,Helvetica Neue,Helvetica,sans-serif; font-size:48px; text-anchor:middle;" transform="rotate(0, 1375.56, 1532.97)" x="1375.56" y="1532.97">6</text>
</g>
<g clip-path="url(#clip4600)">
<text style="fill:#000000; fill-opacity:1; font-family:Arial,Helvetica Neue,Helvetica,sans-serif; font-size:48px; text-anchor:middle;" transform="rotate(0, 1833.26, 1532.97)" x="1833.26" y="1532.97">8</text>
</g>
<g clip-path="url(#clip4600)">
<text style="fill:#000000; fill-opacity:1; font-family:Arial,Helvetica Neue,Helvetica,sans-serif; font-size:48px; text-anchor:middle;" transform="rotate(0, 2290.97, 1532.97)" x="2290.97" y="1532.97">10</text>
</g>
<g clip-path="url(#clip4600)">
<text style="fill:#000000; fill-opacity:1; font-family:Arial,Helvetica Neue,Helvetica,sans-serif; font-size:48px; text-anchor:end;" transform="rotate(0, 145.503, 1463.9)" x="145.503" y="1463.9">0.0</text>
</g>
<g clip-path="url(#clip4600)">
<text style="fill:#000000; fill-opacity:1; font-family:Arial,Helvetica Neue,Helvetica,sans-serif; font-size:48px; text-anchor:end;" transform="rotate(0, 145.503, 1177.27)" x="145.503" y="1177.27">0.2</text>
</g>
<g clip-path="url(#clip4600)">
<text style="fill:#000000; fill-opacity:1; font-family:Arial,Helvetica Neue,Helvetica,sans-serif; font-size:48px; text-anchor:end;" transform="rotate(0, 145.503, 890.651)" x="145.503" y="890.651">0.4</text>
</g>
<g clip-path="url(#clip4600)">
<text style="fill:#000000; fill-opacity:1; font-family:Arial,Helvetica Neue,Helvetica,sans-serif; font-size:48px; text-anchor:end;" transform="rotate(0, 145.503, 604.028)" x="145.503" y="604.028">0.6</text>
</g>
<g clip-path="url(#clip4600)">
<text style="fill:#000000; fill-opacity:1; font-family:Arial,Helvetica Neue,Helvetica,sans-serif; font-size:48px; text-anchor:end;" transform="rotate(0, 145.503, 317.405)" x="145.503" y="317.405">0.8</text>
</g>
<polyline clip-path="url(#clip4602)" style="stroke:#009af9; stroke-width:4; stroke-opacity:1; fill:none" points="
  231.294,336.139 460.146,757 688.999,327.783 917.851,87.7647 1146.7,1438.45 1375.56,93.1479 1604.41,1193.96 1833.26,1120.28 2062.11,321.086 2290.97,1271.11 
  
  "/>
<polygon clip-path="url(#clip4600)" points="
1989.93,251.724 2280.76,251.724 2280.76,130.764 1989.93,130.764 
  " fill="#ffffff" fill-rule="evenodd" fill-opacity="1"/>
<polyline clip-path="url(#clip4600)" style="stroke:#000000; stroke-width:4; stroke-opacity:1; fill:none" points="
  1989.93,251.724 2280.76,251.724 2280.76,130.764 1989.93,130.764 1989.93,251.724 
  "/>
<polyline clip-path="url(#clip4600)" style="stroke:#009af9; stroke-width:4; stroke-opacity:1; fill:none" points="
  2013.93,191.244 2157.93,191.244 
  "/>
<g clip-path="url(#clip4600)">
<text style="fill:#000000; fill-opacity:1; font-family:Arial,Helvetica Neue,Helvetica,sans-serif; font-size:48px; text-anchor:start;" transform="rotate(0, 2181.93, 208.744)" x="2181.93" y="208.744">y1</text>
</g>
</svg>
